<svg xmlns="http://www.w3.org/2000/svg" width="138" height="32" viewBox="0 0 138 32" fill="none">
    <path d="M24.6239 8.49969C24.4361 7.81727 24.0245 7.21907 23.4562 6.80259C22.8878 6.38611 22.1963 6.17591 21.4942 6.20625C20.968 6.24887 20.4626 6.43234 20.0303 6.73771C19.598 7.04308 19.2545 7.45925 19.0352 7.94323C18.9113 8.21078 18.72 8.44098 18.4803 8.61093C18.2407 8.78088 17.9611 8.88466 17.6694 8.91197L14.3944 9.2454C14.0643 9.2822 13.7302 9.23603 13.422 9.11102C13.1139 8.98601 12.8412 8.78604 12.6284 8.52898C12.0585 7.82682 11.2729 7.33584 10.3955 7.13347C9.51804 6.9311 8.59873 7.02887 7.78253 7.41135C6.96633 7.79383 6.2997 8.43926 5.88778 9.24584C5.47585 10.0524 5.34208 10.9742 5.50756 11.8659C5.67303 12.7576 6.12834 13.5684 6.80167 14.1704C7.475 14.7724 8.32803 15.1314 9.22622 15.1908C10.1244 15.2501 11.0166 15.0064 11.7622 14.4982C12.5078 13.9899 13.0642 13.246 13.3438 12.3837C13.4414 12.0717 13.6174 11.7905 13.8548 11.5675C14.0922 11.3444 14.3828 11.1871 14.6985 11.1108L17.9175 10.3764C18.179 10.3194 18.4514 10.3417 18.7003 10.4403C18.9493 10.5389 19.1638 10.7095 19.3169 10.9306L19.4041 11.0477C19.5435 11.2302 19.6286 11.4488 19.6496 11.6781C19.6706 11.9074 19.6265 12.138 19.5226 12.3431L18.6619 14.0914C18.4644 14.4862 18.1784 14.8292 17.8264 15.0931C17.4745 15.3571 17.0663 15.5348 16.6344 15.6121C15.5723 15.8143 14.6071 16.3667 13.8907 17.1824C13.1744 17.9982 12.7476 19.0308 12.6776 20.1179C12.6197 20.8207 12.7217 21.5275 12.9758 22.1846C13.2299 22.8416 13.6295 23.4316 14.1441 23.9095C15.0156 24.7598 16.1719 25.2497 17.3845 25.2823C18.5971 25.3149 19.7777 24.8879 20.693 24.0855C21.6082 23.2832 22.1914 22.164 22.3274 20.9492C22.4633 19.7344 22.1421 18.5124 21.4272 17.5248C21.1327 17.1075 20.935 16.6289 20.8487 16.1243C20.7625 15.6197 20.7898 15.1021 20.9287 14.6095L21.4048 12.8816C21.4567 12.6925 21.561 12.5223 21.7055 12.391C21.8501 12.2597 22.0288 12.1728 22.2208 12.1404C22.6222 12.0733 23.0056 11.9238 23.3472 11.7011C23.6888 11.4784 23.9814 11.1873 24.2068 10.8459C24.4321 10.5045 24.5854 10.1201 24.6572 9.71648C24.7289 9.31287 24.7176 8.8987 24.6239 8.49969Z" fill="#00A0DD"/>
    <path d="M44.2315 11.6988H41.7808C41.5247 10.4186 40.7992 9.77848 39.6043 9.77848C38.0924 9.77848 37.3365 10.9185 37.3365 13.1986V14.9909C37.3365 17.271 38.0924 18.411 39.6043 18.411C40.2262 18.411 40.7078 18.2586 41.0492 17.9538C41.3906 17.649 41.6345 17.1612 41.7808 16.4906H44.2132C43.8109 19.2096 42.2746 20.5691 39.6043 20.5691C38.0802 20.5691 36.8914 20.0997 36.0379 19.1609C35.1966 18.2098 34.776 16.8198 34.776 14.9909V13.1986C34.776 11.3574 35.1966 9.96746 36.0379 9.02862C36.8914 8.08977 38.0802 7.62034 39.6043 7.62034C40.8968 7.62034 41.9393 7.96784 42.7318 8.66283C43.5243 9.34563 44.0243 10.3576 44.2315 11.6988ZM45.2907 9.96137V7.78494H53.6306V9.46756L48.5462 18.2464H53.8135V20.4045H45.2907V18.7219L50.4117 9.96137H45.2907ZM60.2249 20.4045V7.78494H64.4497C67.5223 7.78494 69.0586 8.8884 69.0586 11.0953C69.0586 12.339 68.5039 13.2351 67.3943 13.7838C68.7721 14.2837 69.461 15.2835 69.461 16.7833C69.461 17.8928 69.0708 18.7768 68.2905 19.4352C67.5223 20.0814 66.3762 20.4045 64.8521 20.4045H60.2249ZM64.3949 14.936H62.7854V18.2464H64.6326C66.1445 18.2464 66.9005 17.6916 66.9005 16.5821C66.9005 15.9968 66.6993 15.5762 66.297 15.3201C65.9068 15.0641 65.2728 14.936 64.3949 14.936ZM64.212 9.94308H62.7854V12.7779H64.4863C65.8275 12.7779 66.4981 12.2963 66.4981 11.3331C66.4981 10.8453 66.3274 10.4918 65.986 10.2723C65.6568 10.0528 65.0655 9.94308 64.212 9.94308ZM71.5907 7.78494H74.1512V20.4045H71.5907V7.78494ZM86.202 13.1986V14.9909C86.202 16.8198 85.7752 18.2098 84.9217 19.1609C84.0682 20.0997 82.8794 20.5691 81.3553 20.5691C79.8312 20.5691 78.6424 20.0997 77.7889 19.1609C76.9476 18.2098 76.527 16.8198 76.527 14.9909V13.1986C76.527 11.3574 76.9476 9.96746 77.7889 9.02862C78.6424 8.08977 79.8312 7.62034 81.3553 7.62034C82.8916 7.62034 84.0804 8.08977 84.9217 9.02862C85.7752 9.96746 86.202 11.3574 86.202 13.1986ZM79.0874 13.1986V14.9909C79.0874 17.271 79.8434 18.411 81.3553 18.411C82.8794 18.411 83.6415 17.271 83.6415 14.9909V13.1986C83.6415 10.9185 82.8794 9.77848 81.3553 9.77848C79.8434 9.77848 79.0874 10.9185 79.0874 13.1986ZM88.3975 7.78494H90.958V12.7962H95.3292V7.78494H97.8897V20.4045H95.3292V14.9543H90.958V20.4045H88.3975V7.78494ZM107.624 15.3018V7.78494H110.185V15.2835C110.185 17.0271 109.752 18.3439 108.886 19.234C108.033 20.1241 106.85 20.5691 105.338 20.5691C103.826 20.5691 102.637 20.1302 101.772 19.2523C100.918 18.3622 100.491 17.0454 100.491 15.3018V7.78494H103.052V15.3018C103.052 16.3748 103.235 17.1612 103.6 17.6612C103.966 18.1611 104.545 18.411 105.338 18.411C106.131 18.411 106.71 18.1611 107.075 17.6612C107.441 17.1612 107.624 16.3748 107.624 15.3018ZM112.764 20.4045V7.78494H116.989C120.061 7.78494 121.597 8.8884 121.597 11.0953C121.597 12.339 121.043 13.2351 119.933 13.7838C121.311 14.2837 122 15.2835 122 16.7833C122 17.8928 121.61 18.7768 120.829 19.4352C120.061 20.0814 118.915 20.4045 117.391 20.4045H112.764ZM116.934 14.936H115.324V18.2464H117.171C118.683 18.2464 119.439 17.6916 119.439 16.5821C119.439 15.9968 119.238 15.5762 118.836 15.3201C118.446 15.0641 117.812 14.936 116.934 14.936ZM116.751 9.94308H115.324V12.7779H117.025C118.366 12.7779 119.037 12.2963 119.037 11.3331C119.037 10.8453 118.866 10.4918 118.525 10.2723C118.196 10.0528 117.604 9.94308 116.751 9.94308Z" fill="white"/>
</svg>