<svg width="32" height="32" viewBox="0 0 32 32" fill="none" xmlns="http://www.w3.org/2000/svg">
<path d="M7.3 3.40002C7.3 5.30002 5.9 6.79999 3.6 6.79999C1.4 6.79999 -3.05176e-06 5.30002 -3.05176e-06 3.40002C-3.05176e-06 1.50002 1.4 0 3.6 0C5.9 0 7.2 1.50002 7.3 3.40002ZM0.199994 31.6V9.59998H7V31.6H0.199994ZM11.2 16.6C11.2 13.9 11.1 11.6 11 9.59998H16.9L17.2 12.7H17.3C18.2 11.3 20.4 9.09998 24.1 9.09998C28.6 9.09998 32 12.1 32 18.6V31.6H25.2V19.4C25.2 16.6 24.2 14.6 21.7 14.6C19.8 14.6 18.7 15.9 18.2 17.2C18 17.6 18 18.3 18 18.9V31.6H11.2V16.6V16.6Z" fill="white"/>
</svg>
