<svg width="31" height="43" viewBox="0 0 31 43" fill="none" xmlns="http://www.w3.org/2000/svg">
<path d="M22.942 16.7886C22.8055 16.257 22.5064 15.7911 22.0934 15.4667C21.6804 15.1423 21.1779 14.9786 20.6677 15.0022C20.2853 15.0354 19.918 15.1783 19.6039 15.4162C19.2897 15.654 19.0401 15.9782 18.8807 16.3551C18.7906 16.5635 18.6516 16.7428 18.4775 16.8752C18.3034 17.0076 18.1002 17.0884 17.8882 17.1097L15.5083 17.3694C15.2683 17.398 15.0256 17.3621 14.8016 17.2647C14.5777 17.1673 14.3796 17.0116 14.2249 16.8114C13.8108 16.2645 13.2399 15.8821 12.6022 15.7244C11.9646 15.5668 11.2965 15.643 10.7034 15.9409C10.1103 16.2388 9.62585 16.7415 9.32651 17.3697C9.02716 17.9979 8.92995 18.7159 9.0502 19.4104C9.17045 20.1049 9.50132 20.7364 9.99063 21.2054C10.4799 21.6743 11.0998 21.9539 11.7525 22.0001C12.4053 22.0463 13.0536 21.8565 13.5954 21.4606C14.1372 21.0648 14.5416 20.4853 14.7448 19.8137C14.8157 19.5707 14.9436 19.3517 15.1161 19.178C15.2886 19.0042 15.4999 18.8817 15.7292 18.8223L18.0685 18.2502C18.2585 18.2059 18.4564 18.2232 18.6374 18.3C18.8183 18.3768 18.9742 18.5097 19.0854 18.6819L19.1488 18.7732C19.2501 18.9153 19.3119 19.0856 19.3272 19.2642C19.3424 19.4428 19.3104 19.6224 19.2349 19.7821L18.6095 21.1438C18.4659 21.4513 18.258 21.7184 18.0023 21.924C17.7465 22.1296 17.4499 22.268 17.136 22.3282C16.3642 22.4857 15.6628 22.916 15.1422 23.5513C14.6217 24.1867 14.3115 24.991 14.2607 25.8377C14.2186 26.3851 14.2927 26.9356 14.4773 27.4474C14.662 27.9592 14.9524 28.4187 15.3263 28.7909C15.9596 29.4532 16.8 29.8348 17.6812 29.8602C18.5624 29.8856 19.4203 29.5529 20.0854 28.928C20.7505 28.3031 21.1743 27.4314 21.2731 26.4852C21.3719 25.539 21.1385 24.5872 20.619 23.818C20.405 23.493 20.2613 23.1202 20.1986 22.7272C20.1359 22.3342 20.1558 21.931 20.2567 21.5474L20.6027 20.2015C20.6404 20.0543 20.7162 19.9217 20.8212 19.8194C20.9263 19.7172 21.0562 19.6494 21.1957 19.6242C21.4873 19.5719 21.766 19.4555 22.0142 19.282C22.2625 19.1086 22.4751 18.8819 22.6389 18.616C22.8026 18.3501 22.914 18.0506 22.9662 17.7363C23.0183 17.4219 23.0101 17.0993 22.942 16.7886" fill="#00A0DD"/>
<path fill-rule="evenodd" clip-rule="evenodd" d="M0 0H23.6513L31 7.33009V43H0V0ZM1.9375 1.93258V41.0674H29.0625V8.13059L22.8487 1.93258H1.9375Z" fill="#00A0DD"/>
</svg>
